<svg width="156" height="156" viewBox="0 0 156 156" fill="none" xmlns="http://www.w3.org/2000/svg">
  <rect x="4" y="4" width="148" height="148" rx="38" fill="white" />
  <rect x="4" y="4" width="148" height="148" rx="38" stroke="black" stroke-width="8" />
  <path
    d="M81.5 87.1953H64.7422L58.707 122H48.1602L62.9844 36.6875L86.5977 36.7461C90.3086 36.8633 93.7266 37.5078 96.8516 38.6797C99.9766 39.8516 102.633 41.4922 104.82 43.6016C107.008 45.75 108.648 48.3672 109.742 51.4531C110.875 54.5 111.285 57.957 110.973 61.8242C110.738 64.7539 110.074 67.4102 108.98 69.793C107.887 72.1758 106.48 74.3242 104.762 76.2383C103.004 78.1523 100.992 79.832 98.7266 81.2773C96.5 82.7227 94.0977 83.9727 91.5195 85.0273L102.945 121.238L102.828 122H91.6367L81.5 87.1953ZM66.2656 78.2891L79.7422 78.4062C82.2422 78.4062 84.6641 78.0352 87.0078 77.293C89.3516 76.5117 91.4609 75.3984 93.3359 73.9531C95.1719 72.5469 96.7148 70.8086 97.9648 68.7383C99.2148 66.668 99.9961 64.3242 100.309 61.707C100.582 59.3242 100.445 57.1758 99.8984 55.2617C99.3906 53.3086 98.5312 51.6289 97.3203 50.2227C96.0703 48.8555 94.5078 47.7812 92.6328 47C90.7969 46.2188 88.707 45.7695 86.3633 45.6523L71.9492 45.5938L66.2656 78.2891Z"
    fill="black" />
</svg>